<?xml version="1.0" encoding="UTF-8" standalone="no"?>
<!-- Created with Inkscape (http://www.inkscape.org/) -->

<svg
   width="92.175293"
   height="76.387856"
   viewBox="0 0 24.388046 20.210953"
   version="1.1"
   id="svg1"
   inkscape:version="1.4 (86a8ad7, 2024-10-11)"
   sodipodi:docname="favicon.svg"
   xmlns:inkscape="http://www.inkscape.org/namespaces/inkscape"
   xmlns:sodipodi="http://sodipodi.sourceforge.net/DTD/sodipodi-0.dtd"
   xmlns:xlink="http://www.w3.org/1999/xlink"
   xmlns="http://www.w3.org/2000/svg"
   xmlns:svg="http://www.w3.org/2000/svg">
  <sodipodi:namedview
     id="namedview1"
     pagecolor="#ffffff"
     bordercolor="#000000"
     borderopacity="0.25"
     inkscape:showpageshadow="2"
     inkscape:pageopacity="0.0"
     inkscape:pagecheckerboard="0"
     inkscape:deskcolor="#d1d1d1"
     inkscape:document-units="px"
     inkscape:zoom="2.7868023"
     inkscape:cx="32.83333"
     inkscape:cy="84.146622"
     inkscape:window-width="1360"
     inkscape:window-height="715"
     inkscape:window-x="-8"
     inkscape:window-y="-8"
     inkscape:window-maximized="1"
     inkscape:current-layer="layer1"
     showguides="true">
    <inkscape:page
       x="0"
       y="0"
       width="24.388046"
       height="20.210953"
       id="page2"
       margin="0"
       bleed="0" />
  </sodipodi:namedview>
  <defs
     id="defs1">
    <pattern
       inkscape:collect="always"
       xlink:href="#stripes-grid"
       preserveAspectRatio="xMidYMid"
       id="pattern37"
       patternTransform="matrix(0.28500244,0.28500244,-0.28500244,0.28500244,202.81128,0.86761256)"
       x="-1.39999998"
       y="0"
       width="6" />
    <pattern
       patternUnits="userSpaceOnUse"
       width="3"
       height="10"
       patternTransform="scale(2)"
       preserveAspectRatio="xMidYMid"
       id="stripes-grid"
       style="fill:#ffffff"
       x="0"
       y="0"
       inkscape:label="Stripes grid"
       inkscape:collect="always"
       inkscape:isstock="true">
      <rect
         style="stroke:none"
         x="0"
         y="0"
         width="2"
         height="10"
         id="rect134-4" />
    </pattern>
  </defs>
  <g
     inkscape:label="Layer 1"
     inkscape:groupmode="layer"
     id="layer1"
     transform="translate(1138.6404,4.124155)">
    <g
       id="g1">
      <text
         xml:space="preserve"
         style="font-size:31.9137px;line-height:0.36;font-family:'Courier New';-inkscape-font-specification:'Courier New, Normal';text-align:center;text-decoration-color:#000000;letter-spacing:-9.39598px;word-spacing:0px;writing-mode:lr-tb;direction:ltr;text-anchor:middle;fill:#000000;stroke-width:1.40731;-inkscape-stroke:none"
         x="-1125.8542"
         y="16.086807"
         id="text35"
         inkscape:export-filename="..\HiDrawNFT Site\favicon.svg"
         inkscape:export-xdpi="250"
         inkscape:export-ydpi="250"><tspan
           sodipodi:role="line"
           id="tspan35"
           style="letter-spacing:-9.39598px;word-spacing:0px;stroke-width:1.40731"
           x="-1130.5522"
           y="16.086807">Hi</tspan></text>
      <path
         d="m -1126.2987,7.2669066 h -8.6796 V 14.77784 h 1.7608 q 0.4675,0 0.6701,0.186993 0.2026,0.171412 0.2026,0.467486 0,0.280491 -0.2026,0.467485 -0.2026,0.186994 -0.6701,0.186994 h -4.5501 q -0.4676,0 -0.6701,-0.186994 -0.2026,-0.186994 -0.2026,-0.467485 0,-0.296074 0.2026,-0.467486 0.2025,-0.186993 0.6701,-0.186993 h 1.4803 V -0.83617344 h -0.8103 q -0.483,0 -0.6856,-0.17141096 -0.2027,-0.186995 -0.2027,-0.483069 0,-0.296074 0.2027,-0.467485 0.2026,-0.186994 0.6856,-0.186994 h 3.8801 q 0.4675,0 0.6701,0.186994 0.2026,0.171411 0.2026,0.467485 0,0.296074 -0.2026,0.483069 -0.2026,0.17141096 -0.6701,0.17141096 h -1.7608 V 5.9579476 h 8.6796 v -6.79412104 h -1.7453 q -0.4674,0 -0.67,-0.17141096 -0.2027,-0.186995 -0.2027,-0.483069 0,-0.296074 0.187,-0.467485 0.2027,-0.186994 0.6857,-0.186994 h 3.8801 q 0.4831,0 0.6857,0.186994 0.2026,0.171411 0.2026,0.467485 0,0.296074 -0.2026,0.483069 -0.2026,0.17141096 -0.6857,0.17141096 h -0.8102 V 14.77784 h 1.4803 q 0.4675,0 0.67,0.186993 0.2027,0.171412 0.2027,0.467486 0,0.280491 -0.2027,0.467485 -0.2025,0.186994 -0.67,0.186994 h -4.5502 q -0.4674,0 -0.67,-0.186994 -0.2027,-0.186994 -0.2027,-0.467485 0,-0.296074 0.187,-0.467486 0.2027,-0.186993 0.6857,-0.186993 h 1.7453 z m 5.9687,-11.391061 v 3.38147796 h -1.9323 V -4.1241544 Z m 0.047,6.716207 V 14.77784 h 5.1424 q 0.483,0 0.6856,0.186993 0.2025,0.171412 0.2025,0.467486 0,0.280491 -0.2025,0.467485 -0.2026,0.186994 -0.6856,0.186994 h -11.5937 q -0.4675,0 -0.6701,-0.186994 -0.2025,-0.186994 -0.2025,-0.467485 0,-0.296074 0.2025,-0.467486 0.2026,-0.186993 0.6701,-0.186993 h 5.1424 V 3.9165946 h -3.8178 q -0.4675,0 -0.6857,-0.186994 -0.2026,-0.186994 -0.2026,-0.467485 0,-0.296074 0.2026,-0.483069 0.2027,-0.186994 0.6857,-0.186994 z"
         id="text2"
         style="font-size:26.3668px;line-height:0.36;font-family:'Courier New';-inkscape-font-specification:'Courier New, Normal';text-align:center;letter-spacing:-7.76288px;word-spacing:0px;text-anchor:middle;fill:url(#pattern37);stroke-width:1.40731"
         aria-label="Hi" />
    </g>
  </g>
</svg>
